<svg xmlns="http://www.w3.org/2000/svg" xmlns:xlink="http://www.w3.org/1999/xlink" width="500" zoomAndPan="magnify" viewBox="0 0 375 374.999991" height="500" preserveAspectRatio="xMidYMid meet" version="1.0"><defs><g/><clipPath id="5a9b47cd1a"><path d="M 27.46875 136.964844 L 111.414062 136.964844 L 111.414062 220.910156 L 27.46875 220.910156 Z M 27.46875 136.964844 " clip-rule="nonzero"/></clipPath><clipPath id="8d09f5c912"><path d="M 111.414062 178.9375 C 111.414062 155.757812 92.625 136.964844 69.441406 136.964844 C 46.261719 136.964844 27.46875 155.757812 27.46875 178.9375 C 27.46875 202.117188 46.261719 220.910156 69.441406 220.910156 C 92.625 220.910156 111.414062 202.117188 111.414062 178.9375 Z M 111.414062 178.9375 " clip-rule="nonzero"/></clipPath><linearGradient x1="-0.0000027655" gradientTransform="matrix(0, 0.327913, -0.327913, 0, 111.415087, 136.964217)" y1="128" x2="255.999978" gradientUnits="userSpaceOnUse" y2="128" id="5253e97b4e"><stop stop-opacity="1" stop-color="rgb(36.499023%, 87.799072%, 90.19928%)" offset="0"/><stop stop-opacity="1" stop-color="rgb(36.355591%, 87.568665%, 90.110779%)" offset="0.00390625"/><stop stop-opacity="1" stop-color="rgb(36.213684%, 87.339783%, 90.023804%)" offset="0.0078125"/><stop stop-opacity="1" stop-color="rgb(36.070251%, 87.109375%, 89.936829%)" offset="0.0117188"/><stop stop-opacity="1" stop-color="rgb(35.928345%, 86.880493%, 89.849854%)" offset="0.015625"/><stop stop-opacity="1" stop-color="rgb(35.786438%, 86.650085%, 89.761353%)" offset="0.0195312"/><stop stop-opacity="1" stop-color="rgb(35.644531%, 86.421204%, 89.674377%)" offset="0.0234375"/><stop stop-opacity="1" stop-color="rgb(35.501099%, 86.190796%, 89.585876%)" offset="0.0273438"/><stop stop-opacity="1" stop-color="rgb(35.359192%, 85.961914%, 89.498901%)" offset="0.03125"/><stop stop-opacity="1" stop-color="rgb(35.215759%, 85.731506%, 89.411926%)" offset="0.0351562"/><stop stop-opacity="1" stop-color="rgb(35.073853%, 85.502625%, 89.324951%)" offset="0.0390625"/><stop stop-opacity="1" stop-color="rgb(34.93042%, 85.272217%, 89.23645%)" offset="0.0429688"/><stop stop-opacity="1" stop-color="rgb(34.788513%, 85.043335%, 89.149475%)" offset="0.046875"/><stop stop-opacity="1" stop-color="rgb(34.645081%, 84.812927%, 89.060974%)" offset="0.0507812"/><stop stop-opacity="1" stop-color="rgb(34.503174%, 84.584045%, 88.973999%)" offset="0.0546875"/><stop stop-opacity="1" stop-color="rgb(34.359741%, 84.353638%, 88.885498%)" offset="0.0585938"/><stop stop-opacity="1" stop-color="rgb(34.217834%, 84.124756%, 88.798523%)" offset="0.0625"/><stop stop-opacity="1" stop-color="rgb(34.074402%, 83.894348%, 88.711548%)" offset="0.0664062"/><stop stop-opacity="1" stop-color="rgb(33.932495%, 83.665466%, 88.624573%)" offset="0.0703125"/><stop stop-opacity="1" stop-color="rgb(33.789062%, 83.435059%, 88.536072%)" offset="0.0742188"/><stop stop-opacity="1" stop-color="rgb(33.647156%, 83.206177%, 88.449097%)" offset="0.078125"/><stop stop-opacity="1" stop-color="rgb(33.503723%, 82.975769%, 88.360596%)" offset="0.0820312"/><stop stop-opacity="1" stop-color="rgb(33.361816%, 82.745361%, 88.273621%)" offset="0.0859375"/><stop stop-opacity="1" stop-color="rgb(33.21991%, 82.514954%, 88.186646%)" offset="0.0898438"/><stop stop-opacity="1" stop-color="rgb(33.078003%, 82.286072%, 88.09967%)" offset="0.09375"/><stop stop-opacity="1" stop-color="rgb(32.93457%, 82.055664%, 88.011169%)" offset="0.0976562"/><stop stop-opacity="1" stop-color="rgb(32.792664%, 81.826782%, 87.924194%)" offset="0.101562"/><stop stop-opacity="1" stop-color="rgb(32.649231%, 81.596375%, 87.835693%)" offset="0.105469"/><stop stop-opacity="1" stop-color="rgb(32.507324%, 81.367493%, 87.748718%)" offset="0.109375"/><stop stop-opacity="1" stop-color="rgb(32.363892%, 81.137085%, 87.661743%)" offset="0.113281"/><stop stop-opacity="1" stop-color="rgb(32.221985%, 80.908203%, 87.574768%)" offset="0.117188"/><stop stop-opacity="1" stop-color="rgb(32.078552%, 80.677795%, 87.486267%)" offset="0.121094"/><stop stop-opacity="1" stop-color="rgb(31.936646%, 80.448914%, 87.399292%)" offset="0.125"/><stop stop-opacity="1" stop-color="rgb(31.793213%, 80.218506%, 87.310791%)" offset="0.128906"/><stop stop-opacity="1" stop-color="rgb(31.651306%, 79.989624%, 87.223816%)" offset="0.132812"/><stop stop-opacity="1" stop-color="rgb(31.507874%, 79.759216%, 87.136841%)" offset="0.136719"/><stop stop-opacity="1" stop-color="rgb(31.365967%, 79.530334%, 87.049866%)" offset="0.140625"/><stop stop-opacity="1" stop-color="rgb(31.222534%, 79.299927%, 86.961365%)" offset="0.144531"/><stop stop-opacity="1" stop-color="rgb(31.080627%, 79.071045%, 86.87439%)" offset="0.148438"/><stop stop-opacity="1" stop-color="rgb(30.938721%, 78.840637%, 86.785889%)" offset="0.152344"/><stop stop-opacity="1" stop-color="rgb(30.796814%, 78.611755%, 86.698914%)" offset="0.15625"/><stop stop-opacity="1" stop-color="rgb(30.653381%, 78.381348%, 86.611938%)" offset="0.160156"/><stop stop-opacity="1" stop-color="rgb(30.511475%, 78.152466%, 86.524963%)" offset="0.164062"/><stop stop-opacity="1" stop-color="rgb(30.368042%, 77.922058%, 86.436462%)" offset="0.167969"/><stop stop-opacity="1" stop-color="rgb(30.226135%, 77.693176%, 86.349487%)" offset="0.171875"/><stop stop-opacity="1" stop-color="rgb(30.082703%, 77.462769%, 86.260986%)" offset="0.175781"/><stop stop-opacity="1" stop-color="rgb(29.940796%, 77.233887%, 86.174011%)" offset="0.179688"/><stop stop-opacity="1" stop-color="rgb(29.797363%, 77.003479%, 86.08551%)" offset="0.183594"/><stop stop-opacity="1" stop-color="rgb(29.655457%, 76.774597%, 85.998535%)" offset="0.1875"/><stop stop-opacity="1" stop-color="rgb(29.512024%, 76.544189%, 85.91156%)" offset="0.191406"/><stop stop-opacity="1" stop-color="rgb(29.370117%, 76.315308%, 85.824585%)" offset="0.195312"/><stop stop-opacity="1" stop-color="rgb(29.226685%, 76.0849%, 85.736084%)" offset="0.199219"/><stop stop-opacity="1" stop-color="rgb(29.084778%, 75.856018%, 85.649109%)" offset="0.203125"/><stop stop-opacity="1" stop-color="rgb(28.941345%, 75.62561%, 85.560608%)" offset="0.207031"/><stop stop-opacity="1" stop-color="rgb(28.799438%, 75.396729%, 85.473633%)" offset="0.210938"/><stop stop-opacity="1" stop-color="rgb(28.657532%, 75.166321%, 85.386658%)" offset="0.214844"/><stop stop-opacity="1" stop-color="rgb(28.515625%, 74.937439%, 85.299683%)" offset="0.21875"/><stop stop-opacity="1" stop-color="rgb(28.372192%, 74.707031%, 85.211182%)" offset="0.222656"/><stop stop-opacity="1" stop-color="rgb(28.230286%, 74.476624%, 85.124207%)" offset="0.226562"/><stop stop-opacity="1" stop-color="rgb(28.086853%, 74.246216%, 85.035706%)" offset="0.230469"/><stop stop-opacity="1" stop-color="rgb(27.944946%, 74.017334%, 84.94873%)" offset="0.234375"/><stop stop-opacity="1" stop-color="rgb(27.801514%, 73.786926%, 84.861755%)" offset="0.238281"/><stop stop-opacity="1" stop-color="rgb(27.659607%, 73.558044%, 84.77478%)" offset="0.242188"/><stop stop-opacity="1" stop-color="rgb(27.516174%, 73.327637%, 84.686279%)" offset="0.246094"/><stop stop-opacity="1" stop-color="rgb(27.374268%, 73.098755%, 84.599304%)" offset="0.25"/><stop stop-opacity="1" stop-color="rgb(27.230835%, 72.868347%, 84.510803%)" offset="0.253906"/><stop stop-opacity="1" stop-color="rgb(27.088928%, 72.639465%, 84.423828%)" offset="0.257812"/><stop stop-opacity="1" stop-color="rgb(26.945496%, 72.409058%, 84.336853%)" offset="0.261719"/><stop stop-opacity="1" stop-color="rgb(26.803589%, 72.180176%, 84.249878%)" offset="0.265625"/><stop stop-opacity="1" stop-color="rgb(26.660156%, 71.949768%, 84.161377%)" offset="0.269531"/><stop stop-opacity="1" stop-color="rgb(26.51825%, 71.720886%, 84.074402%)" offset="0.273438"/><stop stop-opacity="1" stop-color="rgb(26.374817%, 71.490479%, 83.985901%)" offset="0.277344"/><stop stop-opacity="1" stop-color="rgb(26.23291%, 71.261597%, 83.898926%)" offset="0.28125"/><stop stop-opacity="1" stop-color="rgb(26.091003%, 71.031189%, 83.811951%)" offset="0.285156"/><stop stop-opacity="1" stop-color="rgb(25.949097%, 70.802307%, 83.724976%)" offset="0.289062"/><stop stop-opacity="1" stop-color="rgb(25.805664%, 70.571899%, 83.636475%)" offset="0.292969"/><stop stop-opacity="1" stop-color="rgb(25.663757%, 70.343018%, 83.5495%)" offset="0.296875"/><stop stop-opacity="1" stop-color="rgb(25.520325%, 70.11261%, 83.460999%)" offset="0.300781"/><stop stop-opacity="1" stop-color="rgb(25.378418%, 69.883728%, 83.374023%)" offset="0.304688"/><stop stop-opacity="1" stop-color="rgb(25.234985%, 69.65332%, 83.285522%)" offset="0.308594"/><stop stop-opacity="1" stop-color="rgb(25.093079%, 69.424438%, 83.198547%)" offset="0.3125"/><stop stop-opacity="1" stop-color="rgb(24.949646%, 69.194031%, 83.111572%)" offset="0.316406"/><stop stop-opacity="1" stop-color="rgb(24.807739%, 68.965149%, 83.024597%)" offset="0.320312"/><stop stop-opacity="1" stop-color="rgb(24.664307%, 68.734741%, 82.936096%)" offset="0.324219"/><stop stop-opacity="1" stop-color="rgb(24.5224%, 68.505859%, 82.849121%)" offset="0.328125"/><stop stop-opacity="1" stop-color="rgb(24.378967%, 68.275452%, 82.76062%)" offset="0.332031"/><stop stop-opacity="1" stop-color="rgb(24.237061%, 68.04657%, 82.673645%)" offset="0.335938"/><stop stop-opacity="1" stop-color="rgb(24.093628%, 67.816162%, 82.58667%)" offset="0.339844"/><stop stop-opacity="1" stop-color="rgb(23.951721%, 67.58728%, 82.499695%)" offset="0.34375"/><stop stop-opacity="1" stop-color="rgb(23.809814%, 67.356873%, 82.411194%)" offset="0.347656"/><stop stop-opacity="1" stop-color="rgb(23.667908%, 67.127991%, 82.324219%)" offset="0.351562"/><stop stop-opacity="1" stop-color="rgb(23.524475%, 66.897583%, 82.235718%)" offset="0.355469"/><stop stop-opacity="1" stop-color="rgb(23.382568%, 66.668701%, 82.148743%)" offset="0.359375"/><stop stop-opacity="1" stop-color="rgb(23.239136%, 66.438293%, 82.061768%)" offset="0.363281"/><stop stop-opacity="1" stop-color="rgb(23.097229%, 66.207886%, 81.974792%)" offset="0.367188"/><stop stop-opacity="1" stop-color="rgb(22.953796%, 65.977478%, 81.886292%)" offset="0.371094"/><stop stop-opacity="1" stop-color="rgb(22.81189%, 65.748596%, 81.799316%)" offset="0.375"/><stop stop-opacity="1" stop-color="rgb(22.668457%, 65.518188%, 81.710815%)" offset="0.378906"/><stop stop-opacity="1" stop-color="rgb(22.52655%, 65.289307%, 81.62384%)" offset="0.382812"/><stop stop-opacity="1" stop-color="rgb(22.383118%, 65.058899%, 81.536865%)" offset="0.386719"/><stop stop-opacity="1" stop-color="rgb(22.241211%, 64.830017%, 81.44989%)" offset="0.390625"/><stop stop-opacity="1" stop-color="rgb(22.097778%, 64.599609%, 81.361389%)" offset="0.394531"/><stop stop-opacity="1" stop-color="rgb(21.955872%, 64.370728%, 81.274414%)" offset="0.398438"/><stop stop-opacity="1" stop-color="rgb(21.812439%, 64.14032%, 81.185913%)" offset="0.402344"/><stop stop-opacity="1" stop-color="rgb(21.670532%, 63.911438%, 81.098938%)" offset="0.40625"/><stop stop-opacity="1" stop-color="rgb(21.528625%, 63.68103%, 81.011963%)" offset="0.410156"/><stop stop-opacity="1" stop-color="rgb(21.386719%, 63.452148%, 80.924988%)" offset="0.414062"/><stop stop-opacity="1" stop-color="rgb(21.243286%, 63.221741%, 80.836487%)" offset="0.417969"/><stop stop-opacity="1" stop-color="rgb(21.101379%, 62.992859%, 80.749512%)" offset="0.421875"/><stop stop-opacity="1" stop-color="rgb(20.957947%, 62.762451%, 80.661011%)" offset="0.425781"/><stop stop-opacity="1" stop-color="rgb(20.81604%, 62.533569%, 80.574036%)" offset="0.429688"/><stop stop-opacity="1" stop-color="rgb(20.672607%, 62.303162%, 80.485535%)" offset="0.433594"/><stop stop-opacity="1" stop-color="rgb(20.530701%, 62.07428%, 80.39856%)" offset="0.4375"/><stop stop-opacity="1" stop-color="rgb(20.387268%, 61.843872%, 80.311584%)" offset="0.441406"/><stop stop-opacity="1" stop-color="rgb(20.245361%, 61.61499%, 80.224609%)" offset="0.445312"/><stop stop-opacity="1" stop-color="rgb(20.101929%, 61.384583%, 80.136108%)" offset="0.449219"/><stop stop-opacity="1" stop-color="rgb(19.960022%, 61.155701%, 80.049133%)" offset="0.453125"/><stop stop-opacity="1" stop-color="rgb(19.816589%, 60.925293%, 79.960632%)" offset="0.457031"/><stop stop-opacity="1" stop-color="rgb(19.674683%, 60.696411%, 79.873657%)" offset="0.460938"/><stop stop-opacity="1" stop-color="rgb(19.53125%, 60.466003%, 79.786682%)" offset="0.464844"/><stop stop-opacity="1" stop-color="rgb(19.389343%, 60.237122%, 79.699707%)" offset="0.46875"/><stop stop-opacity="1" stop-color="rgb(19.245911%, 60.006714%, 79.611206%)" offset="0.472656"/><stop stop-opacity="1" stop-color="rgb(19.104004%, 59.777832%, 79.524231%)" offset="0.476562"/><stop stop-opacity="1" stop-color="rgb(18.962097%, 59.547424%, 79.43573%)" offset="0.480469"/><stop stop-opacity="1" stop-color="rgb(18.82019%, 59.318542%, 79.348755%)" offset="0.484375"/><stop stop-opacity="1" stop-color="rgb(18.676758%, 59.088135%, 79.26178%)" offset="0.488281"/><stop stop-opacity="1" stop-color="rgb(18.534851%, 58.859253%, 79.174805%)" offset="0.492188"/><stop stop-opacity="1" stop-color="rgb(18.391418%, 58.628845%, 79.086304%)" offset="0.496094"/><stop stop-opacity="1" stop-color="rgb(18.249512%, 58.399963%, 78.999329%)" offset="0.5"/><stop stop-opacity="1" stop-color="rgb(18.106079%, 58.169556%, 78.910828%)" offset="0.503906"/><stop stop-opacity="1" stop-color="rgb(17.964172%, 57.939148%, 78.823853%)" offset="0.507812"/><stop stop-opacity="1" stop-color="rgb(17.82074%, 57.70874%, 78.736877%)" offset="0.511719"/><stop stop-opacity="1" stop-color="rgb(17.678833%, 57.479858%, 78.649902%)" offset="0.515625"/><stop stop-opacity="1" stop-color="rgb(17.5354%, 57.249451%, 78.561401%)" offset="0.519531"/><stop stop-opacity="1" stop-color="rgb(17.393494%, 57.020569%, 78.474426%)" offset="0.523438"/><stop stop-opacity="1" stop-color="rgb(17.250061%, 56.790161%, 78.385925%)" offset="0.527344"/><stop stop-opacity="1" stop-color="rgb(17.108154%, 56.561279%, 78.29895%)" offset="0.53125"/><stop stop-opacity="1" stop-color="rgb(16.964722%, 56.330872%, 78.211975%)" offset="0.535156"/><stop stop-opacity="1" stop-color="rgb(16.822815%, 56.10199%, 78.125%)" offset="0.539062"/><stop stop-opacity="1" stop-color="rgb(16.680908%, 55.871582%, 78.036499%)" offset="0.542969"/><stop stop-opacity="1" stop-color="rgb(16.539001%, 55.6427%, 77.949524%)" offset="0.546875"/><stop stop-opacity="1" stop-color="rgb(16.395569%, 55.412292%, 77.861023%)" offset="0.550781"/><stop stop-opacity="1" stop-color="rgb(16.253662%, 55.183411%, 77.774048%)" offset="0.554688"/><stop stop-opacity="1" stop-color="rgb(16.110229%, 54.953003%, 77.685547%)" offset="0.558594"/><stop stop-opacity="1" stop-color="rgb(15.968323%, 54.724121%, 77.598572%)" offset="0.5625"/><stop stop-opacity="1" stop-color="rgb(15.82489%, 54.493713%, 77.511597%)" offset="0.566406"/><stop stop-opacity="1" stop-color="rgb(15.682983%, 54.264832%, 77.424622%)" offset="0.570312"/><stop stop-opacity="1" stop-color="rgb(15.539551%, 54.034424%, 77.336121%)" offset="0.574219"/><stop stop-opacity="1" stop-color="rgb(15.397644%, 53.805542%, 77.249146%)" offset="0.578125"/><stop stop-opacity="1" stop-color="rgb(15.254211%, 53.575134%, 77.160645%)" offset="0.582031"/><stop stop-opacity="1" stop-color="rgb(15.112305%, 53.346252%, 77.073669%)" offset="0.585938"/><stop stop-opacity="1" stop-color="rgb(14.968872%, 53.115845%, 76.986694%)" offset="0.589844"/><stop stop-opacity="1" stop-color="rgb(14.826965%, 52.886963%, 76.899719%)" offset="0.59375"/><stop stop-opacity="1" stop-color="rgb(14.683533%, 52.656555%, 76.811218%)" offset="0.597656"/><stop stop-opacity="1" stop-color="rgb(14.541626%, 52.427673%, 76.724243%)" offset="0.601562"/><stop stop-opacity="1" stop-color="rgb(14.399719%, 52.197266%, 76.635742%)" offset="0.605469"/><stop stop-opacity="1" stop-color="rgb(14.257812%, 51.968384%, 76.548767%)" offset="0.609375"/><stop stop-opacity="1" stop-color="rgb(14.11438%, 51.737976%, 76.461792%)" offset="0.613281"/><stop stop-opacity="1" stop-color="rgb(13.972473%, 51.509094%, 76.374817%)" offset="0.617188"/><stop stop-opacity="1" stop-color="rgb(13.829041%, 51.278687%, 76.286316%)" offset="0.621094"/><stop stop-opacity="1" stop-color="rgb(13.687134%, 51.049805%, 76.199341%)" offset="0.625"/><stop stop-opacity="1" stop-color="rgb(13.543701%, 50.819397%, 76.11084%)" offset="0.628906"/><stop stop-opacity="1" stop-color="rgb(13.401794%, 50.590515%, 76.023865%)" offset="0.632812"/><stop stop-opacity="1" stop-color="rgb(13.258362%, 50.360107%, 75.93689%)" offset="0.636719"/><stop stop-opacity="1" stop-color="rgb(13.116455%, 50.131226%, 75.849915%)" offset="0.640625"/><stop stop-opacity="1" stop-color="rgb(12.973022%, 49.900818%, 75.761414%)" offset="0.644531"/><stop stop-opacity="1" stop-color="rgb(12.831116%, 49.67041%, 75.674438%)" offset="0.648438"/><stop stop-opacity="1" stop-color="rgb(12.687683%, 49.440002%, 75.585938%)" offset="0.652344"/><stop stop-opacity="1" stop-color="rgb(12.545776%, 49.211121%, 75.498962%)" offset="0.65625"/><stop stop-opacity="1" stop-color="rgb(12.402344%, 48.980713%, 75.410461%)" offset="0.660156"/><stop stop-opacity="1" stop-color="rgb(12.260437%, 48.751831%, 75.323486%)" offset="0.664062"/><stop stop-opacity="1" stop-color="rgb(12.117004%, 48.521423%, 75.236511%)" offset="0.667969"/><stop stop-opacity="1" stop-color="rgb(11.975098%, 48.292542%, 75.149536%)" offset="0.671875"/><stop stop-opacity="1" stop-color="rgb(11.833191%, 48.062134%, 75.061035%)" offset="0.675781"/><stop stop-opacity="1" stop-color="rgb(11.691284%, 47.833252%, 74.97406%)" offset="0.679688"/><stop stop-opacity="1" stop-color="rgb(11.547852%, 47.602844%, 74.885559%)" offset="0.683594"/><stop stop-opacity="1" stop-color="rgb(11.405945%, 47.373962%, 74.798584%)" offset="0.6875"/><stop stop-opacity="1" stop-color="rgb(11.262512%, 47.143555%, 74.711609%)" offset="0.691406"/><stop stop-opacity="1" stop-color="rgb(11.120605%, 46.914673%, 74.624634%)" offset="0.695312"/><stop stop-opacity="1" stop-color="rgb(10.977173%, 46.684265%, 74.536133%)" offset="0.699219"/><stop stop-opacity="1" stop-color="rgb(10.835266%, 46.455383%, 74.449158%)" offset="0.703125"/><stop stop-opacity="1" stop-color="rgb(10.691833%, 46.224976%, 74.360657%)" offset="0.707031"/><stop stop-opacity="1" stop-color="rgb(10.549927%, 45.996094%, 74.273682%)" offset="0.710938"/><stop stop-opacity="1" stop-color="rgb(10.406494%, 45.765686%, 74.186707%)" offset="0.714844"/><stop stop-opacity="1" stop-color="rgb(10.264587%, 45.536804%, 74.099731%)" offset="0.71875"/><stop stop-opacity="1" stop-color="rgb(10.121155%, 45.306396%, 74.01123%)" offset="0.722656"/><stop stop-opacity="1" stop-color="rgb(9.979248%, 45.077515%, 73.924255%)" offset="0.726562"/><stop stop-opacity="1" stop-color="rgb(9.835815%, 44.847107%, 73.835754%)" offset="0.730469"/><stop stop-opacity="1" stop-color="rgb(9.693909%, 44.618225%, 73.748779%)" offset="0.734375"/><stop stop-opacity="1" stop-color="rgb(9.552002%, 44.387817%, 73.661804%)" offset="0.738281"/><stop stop-opacity="1" stop-color="rgb(9.410095%, 44.158936%, 73.574829%)" offset="0.742188"/><stop stop-opacity="1" stop-color="rgb(9.266663%, 43.928528%, 73.486328%)" offset="0.746094"/><stop stop-opacity="1" stop-color="rgb(9.124756%, 43.699646%, 73.399353%)" offset="0.75"/><stop stop-opacity="1" stop-color="rgb(8.981323%, 43.469238%, 73.310852%)" offset="0.753906"/><stop stop-opacity="1" stop-color="rgb(8.839417%, 43.240356%, 73.223877%)" offset="0.757812"/><stop stop-opacity="1" stop-color="rgb(8.695984%, 43.009949%, 73.136902%)" offset="0.761719"/><stop stop-opacity="1" stop-color="rgb(8.554077%, 42.781067%, 73.049927%)" offset="0.765625"/><stop stop-opacity="1" stop-color="rgb(8.410645%, 42.550659%, 72.961426%)" offset="0.769531"/><stop stop-opacity="1" stop-color="rgb(8.268738%, 42.321777%, 72.874451%)" offset="0.773438"/><stop stop-opacity="1" stop-color="rgb(8.125305%, 42.09137%, 72.78595%)" offset="0.777344"/><stop stop-opacity="1" stop-color="rgb(7.983398%, 41.862488%, 72.698975%)" offset="0.78125"/><stop stop-opacity="1" stop-color="rgb(7.839966%, 41.63208%, 72.610474%)" offset="0.785156"/><stop stop-opacity="1" stop-color="rgb(7.698059%, 41.401672%, 72.523499%)" offset="0.789062"/><stop stop-opacity="1" stop-color="rgb(7.554626%, 41.171265%, 72.436523%)" offset="0.792969"/><stop stop-opacity="1" stop-color="rgb(7.41272%, 40.942383%, 72.349548%)" offset="0.796875"/><stop stop-opacity="1" stop-color="rgb(7.270813%, 40.711975%, 72.261047%)" offset="0.800781"/><stop stop-opacity="1" stop-color="rgb(7.128906%, 40.483093%, 72.174072%)" offset="0.804688"/><stop stop-opacity="1" stop-color="rgb(6.985474%, 40.252686%, 72.085571%)" offset="0.808594"/><stop stop-opacity="1" stop-color="rgb(6.843567%, 40.023804%, 71.998596%)" offset="0.8125"/><stop stop-opacity="1" stop-color="rgb(6.700134%, 39.793396%, 71.911621%)" offset="0.816406"/><stop stop-opacity="1" stop-color="rgb(6.558228%, 39.564514%, 71.824646%)" offset="0.820312"/><stop stop-opacity="1" stop-color="rgb(6.414795%, 39.334106%, 71.736145%)" offset="0.824219"/><stop stop-opacity="1" stop-color="rgb(6.272888%, 39.105225%, 71.64917%)" offset="0.828125"/><stop stop-opacity="1" stop-color="rgb(6.129456%, 38.874817%, 71.560669%)" offset="0.832031"/><stop stop-opacity="1" stop-color="rgb(5.987549%, 38.645935%, 71.473694%)" offset="0.835938"/><stop stop-opacity="1" stop-color="rgb(5.844116%, 38.415527%, 71.386719%)" offset="0.839844"/><stop stop-opacity="1" stop-color="rgb(5.702209%, 38.186646%, 71.299744%)" offset="0.84375"/><stop stop-opacity="1" stop-color="rgb(5.558777%, 37.956238%, 71.211243%)" offset="0.847656"/><stop stop-opacity="1" stop-color="rgb(5.41687%, 37.727356%, 71.124268%)" offset="0.851562"/><stop stop-opacity="1" stop-color="rgb(5.273438%, 37.496948%, 71.035767%)" offset="0.855469"/><stop stop-opacity="1" stop-color="rgb(5.131531%, 37.268066%, 70.948792%)" offset="0.859375"/><stop stop-opacity="1" stop-color="rgb(4.988098%, 37.037659%, 70.861816%)" offset="0.863281"/><stop stop-opacity="1" stop-color="rgb(4.846191%, 36.808777%, 70.774841%)" offset="0.867188"/><stop stop-opacity="1" stop-color="rgb(4.704285%, 36.578369%, 70.68634%)" offset="0.871094"/><stop stop-opacity="1" stop-color="rgb(4.562378%, 36.349487%, 70.599365%)" offset="0.875"/><stop stop-opacity="1" stop-color="rgb(4.418945%, 36.11908%, 70.510864%)" offset="0.878906"/><stop stop-opacity="1" stop-color="rgb(4.277039%, 35.890198%, 70.423889%)" offset="0.882812"/><stop stop-opacity="1" stop-color="rgb(4.133606%, 35.65979%, 70.336914%)" offset="0.886719"/><stop stop-opacity="1" stop-color="rgb(3.991699%, 35.430908%, 70.249939%)" offset="0.890625"/><stop stop-opacity="1" stop-color="rgb(3.848267%, 35.2005%, 70.161438%)" offset="0.894531"/><stop stop-opacity="1" stop-color="rgb(3.70636%, 34.971619%, 70.074463%)" offset="0.898438"/><stop stop-opacity="1" stop-color="rgb(3.562927%, 34.741211%, 69.985962%)" offset="0.902344"/><stop stop-opacity="1" stop-color="rgb(3.421021%, 34.512329%, 69.898987%)" offset="0.90625"/><stop stop-opacity="1" stop-color="rgb(3.277588%, 34.281921%, 69.810486%)" offset="0.910156"/><stop stop-opacity="1" stop-color="rgb(3.135681%, 34.05304%, 69.723511%)" offset="0.914062"/><stop stop-opacity="1" stop-color="rgb(2.992249%, 33.822632%, 69.636536%)" offset="0.917969"/><stop stop-opacity="1" stop-color="rgb(2.850342%, 33.59375%, 69.549561%)" offset="0.921875"/><stop stop-opacity="1" stop-color="rgb(2.706909%, 33.363342%, 69.46106%)" offset="0.925781"/><stop stop-opacity="1" stop-color="rgb(2.565002%, 33.132935%, 69.374084%)" offset="0.929688"/><stop stop-opacity="1" stop-color="rgb(2.423096%, 32.902527%, 69.285583%)" offset="0.933594"/><stop stop-opacity="1" stop-color="rgb(2.281189%, 32.673645%, 69.198608%)" offset="0.9375"/><stop stop-opacity="1" stop-color="rgb(2.137756%, 32.443237%, 69.111633%)" offset="0.941406"/><stop stop-opacity="1" stop-color="rgb(1.99585%, 32.214355%, 69.024658%)" offset="0.945312"/><stop stop-opacity="1" stop-color="rgb(1.852417%, 31.983948%, 68.936157%)" offset="0.949219"/><stop stop-opacity="1" stop-color="rgb(1.71051%, 31.755066%, 68.849182%)" offset="0.953125"/><stop stop-opacity="1" stop-color="rgb(1.567078%, 31.524658%, 68.760681%)" offset="0.957031"/><stop stop-opacity="1" stop-color="rgb(1.425171%, 31.295776%, 68.673706%)" offset="0.960938"/><stop stop-opacity="1" stop-color="rgb(1.281738%, 31.065369%, 68.586731%)" offset="0.964844"/><stop stop-opacity="1" stop-color="rgb(1.139832%, 30.836487%, 68.499756%)" offset="0.96875"/><stop stop-opacity="1" stop-color="rgb(0.996399%, 30.606079%, 68.411255%)" offset="0.972656"/><stop stop-opacity="1" stop-color="rgb(0.854492%, 30.377197%, 68.32428%)" offset="0.976562"/><stop stop-opacity="1" stop-color="rgb(0.71106%, 30.14679%, 68.235779%)" offset="0.980469"/><stop stop-opacity="1" stop-color="rgb(0.569153%, 29.917908%, 68.148804%)" offset="0.984375"/><stop stop-opacity="1" stop-color="rgb(0.42572%, 29.6875%, 68.061829%)" offset="0.988281"/><stop stop-opacity="1" stop-color="rgb(0.283813%, 29.458618%, 67.974854%)" offset="0.992188"/><stop stop-opacity="1" stop-color="rgb(0.141907%, 29.22821%, 67.886353%)" offset="0.996094"/><stop stop-opacity="1" stop-color="rgb(0%, 28.999329%, 67.799377%)" offset="1"/></linearGradient><clipPath id="ff75675d1e"><path d="M 0 149.859375 L 92.5625 149.859375 L 92.5625 217.105469 L 0 217.105469 Z M 0 149.859375 " clip-rule="nonzero"/></clipPath></defs><g clip-path="url(#5a9b47cd1a)"><g clip-path="url(#8d09f5c912)"><path fill="url(#5253e97b4e)" d="M 111.414062 136.964844 L 27.46875 136.964844 L 27.46875 220.910156 L 111.414062 220.910156 Z M 111.414062 136.964844 " fill-rule="nonzero"/></g></g><g clip-path="url(#ff75675d1e)"><path fill="#ffffff" d="M 80.042969 166.710938 L 67.402344 166.710938 L 67.402344 149.863281 L 8.425781 149.863281 C 3.769531 149.863281 0 153.632812 0 158.289062 L 0 204.628906 L 8.425781 204.628906 C 8.425781 211.601562 14.089844 217.265625 21.0625 217.265625 C 28.035156 217.265625 33.703125 211.601562 33.703125 204.628906 L 58.980469 204.628906 C 58.980469 211.601562 64.644531 217.265625 71.617188 217.265625 C 78.589844 217.265625 84.253906 211.601562 84.253906 204.628906 L 92.679688 204.628906 L 92.679688 183.5625 Z M 21.0625 210.945312 C 17.566406 210.945312 14.746094 208.125 14.746094 204.628906 C 14.746094 201.132812 17.566406 198.308594 21.0625 198.308594 C 24.558594 198.308594 27.382812 201.132812 27.382812 204.628906 C 27.382812 208.125 24.558594 210.945312 21.0625 210.945312 Z M 77.9375 173.03125 L 86.214844 183.5625 L 67.402344 183.5625 L 67.402344 173.03125 Z M 71.617188 210.945312 C 68.121094 210.945312 65.296875 208.125 65.296875 204.628906 C 65.296875 201.132812 68.121094 198.308594 71.617188 198.308594 C 75.113281 198.308594 77.9375 201.132812 77.9375 204.628906 C 77.9375 208.125 75.113281 210.945312 71.617188 210.945312 Z M 71.617188 210.945312 " fill-opacity="1" fill-rule="nonzero"/></g><g fill="#000000" fill-opacity="1"><g transform="translate(128.747333, 190.937054)"><g><path d="M 16.84375 0 L 6.453125 -18.359375 C 6.648438 -16.578125 6.75 -15.144531 6.75 -14.0625 L 6.75 0 L 2.3125 0 L 2.3125 -23.84375 L 8.015625 -23.84375 L 18.5625 -5.328125 C 18.363281 -7.035156 18.265625 -8.585938 18.265625 -9.984375 L 18.265625 -23.84375 L 22.6875 -23.84375 L 22.6875 0 Z M 16.84375 0 "/></g></g></g><g fill="#000000" fill-opacity="1"><g transform="translate(153.763681, 190.937054)"><g><path d="M 13.078125 -19.984375 L 13.078125 0 L 8.09375 0 L 8.09375 -19.984375 L 0.390625 -19.984375 L 0.390625 -23.84375 L 20.796875 -23.84375 L 20.796875 -19.984375 Z M 13.078125 -19.984375 "/></g></g></g><g fill="#000000" fill-opacity="1"><g transform="translate(174.923553, 190.937054)"><g><path d="M 13.453125 -3.59375 C 16.460938 -3.59375 18.554688 -5.101562 19.734375 -8.125 L 24.078125 -6.484375 C 23.140625 -4.179688 21.765625 -2.46875 19.953125 -1.34375 C 18.148438 -0.21875 15.984375 0.34375 13.453125 0.34375 C 9.617188 0.34375 6.65625 -0.738281 4.5625 -2.90625 C 2.46875 -5.082031 1.421875 -8.125 1.421875 -12.03125 C 1.421875 -15.945312 2.429688 -18.953125 4.453125 -21.046875 C 6.472656 -23.148438 9.398438 -24.203125 13.234375 -24.203125 C 16.023438 -24.203125 18.300781 -23.640625 20.0625 -22.515625 C 21.820312 -21.390625 23.0625 -19.738281 23.78125 -17.5625 L 19.375 -16.359375 C 19 -17.554688 18.265625 -18.503906 17.171875 -19.203125 C 16.085938 -19.910156 14.804688 -20.265625 13.328125 -20.265625 C 11.078125 -20.265625 9.367188 -19.566406 8.203125 -18.171875 C 7.035156 -16.773438 6.453125 -14.726562 6.453125 -12.03125 C 6.453125 -9.289062 7.050781 -7.195312 8.25 -5.75 C 9.445312 -4.3125 11.179688 -3.59375 13.453125 -3.59375 Z M 13.453125 -3.59375 "/></g></g></g><g fill="#000000" fill-opacity="1"><g transform="translate(199.939901, 190.937054)"><g/></g></g><g fill="#000000" fill-opacity="1"><g transform="translate(209.564176, 190.937054)"><g><path d="M 13.078125 -19.984375 L 13.078125 0 L 8.09375 0 L 8.09375 -19.984375 L 0.390625 -19.984375 L 0.390625 -23.84375 L 20.796875 -23.84375 L 20.796875 -19.984375 Z M 13.078125 -19.984375 "/></g></g></g><g fill="#000000" fill-opacity="1"><g transform="translate(230.724048, 190.937054)"><g><path d="M 2.421875 0 L 2.421875 -14.015625 C 2.421875 -15.015625 2.40625 -15.847656 2.375 -16.515625 C 2.34375 -17.191406 2.3125 -17.789062 2.28125 -18.3125 L 6.8125 -18.3125 C 6.851562 -18.101562 6.898438 -17.484375 6.953125 -16.453125 C 7.015625 -15.421875 7.046875 -14.738281 7.046875 -14.40625 L 7.109375 -14.40625 C 7.566406 -15.6875 7.976562 -16.585938 8.34375 -17.109375 C 8.707031 -17.640625 9.132812 -18.03125 9.625 -18.28125 C 10.125 -18.539062 10.742188 -18.671875 11.484375 -18.671875 C 12.097656 -18.671875 12.59375 -18.582031 12.96875 -18.40625 L 12.96875 -14.4375 C 12.195312 -14.601562 11.519531 -14.6875 10.9375 -14.6875 C 9.75 -14.6875 8.820312 -14.207031 8.15625 -13.25 C 7.5 -12.289062 7.171875 -10.867188 7.171875 -8.984375 L 7.171875 0 Z M 2.421875 0 "/></g></g></g><g fill="#000000" fill-opacity="1"><g transform="translate(244.204799, 190.937054)"><g><path d="M 6.90625 -18.3125 L 6.90625 -8.03125 C 6.90625 -4.820312 7.988281 -3.21875 10.15625 -3.21875 C 11.300781 -3.21875 12.226562 -3.707031 12.9375 -4.6875 C 13.644531 -5.675781 14 -6.945312 14 -8.5 L 14 -18.3125 L 18.75 -18.3125 L 18.75 -4.09375 C 18.75 -2.539062 18.796875 -1.175781 18.890625 0 L 14.34375 0 C 14.207031 -1.625 14.140625 -2.835938 14.140625 -3.640625 L 14.0625 -3.640625 C 13.425781 -2.253906 12.617188 -1.242188 11.640625 -0.609375 C 10.671875 0.0234375 9.515625 0.34375 8.171875 0.34375 C 6.234375 0.34375 4.742188 -0.25 3.703125 -1.4375 C 2.671875 -2.632812 2.15625 -4.382812 2.15625 -6.6875 L 2.15625 -18.3125 Z M 6.90625 -18.3125 "/></g></g></g><g fill="#000000" fill-opacity="1"><g transform="translate(265.364671, 190.937054)"><g><path d="M 10.046875 0.34375 C 7.273438 0.34375 5.132812 -0.484375 3.625 -2.140625 C 2.113281 -3.796875 1.359375 -6.097656 1.359375 -9.046875 C 1.359375 -12.078125 2.117188 -14.429688 3.640625 -16.109375 C 5.160156 -17.796875 7.320312 -18.640625 10.125 -18.640625 C 12.269531 -18.640625 14.046875 -18.097656 15.453125 -17.015625 C 16.867188 -15.941406 17.757812 -14.453125 18.125 -12.546875 L 13.328125 -12.296875 C 13.191406 -13.234375 12.851562 -13.976562 12.3125 -14.53125 C 11.769531 -15.09375 11.003906 -15.375 10.015625 -15.375 C 7.566406 -15.375 6.34375 -13.328125 6.34375 -9.234375 C 6.34375 -5.015625 7.585938 -2.90625 10.078125 -2.90625 C 10.984375 -2.90625 11.738281 -3.191406 12.34375 -3.765625 C 12.957031 -4.335938 13.335938 -5.1875 13.484375 -6.3125 L 18.265625 -6.09375 C 18.085938 -4.84375 17.632812 -3.722656 16.90625 -2.734375 C 16.1875 -1.753906 15.234375 -0.992188 14.046875 -0.453125 C 12.859375 0.078125 11.523438 0.34375 10.046875 0.34375 Z M 10.046875 0.34375 "/></g></g></g><g fill="#000000" fill-opacity="1"><g transform="translate(284.630134, 190.937054)"><g><path d="M 14.109375 0 L 9.21875 -8.296875 L 7.171875 -6.875 L 7.171875 0 L 2.421875 0 L 2.421875 -25.109375 L 7.171875 -25.109375 L 7.171875 -10.734375 L 13.703125 -18.3125 L 18.8125 -18.3125 L 12.390625 -11.171875 L 19.3125 0 Z M 14.109375 0 "/></g></g></g><g fill="#000000" fill-opacity="1"><g transform="translate(303.895597, 190.937054)"><g><path d="M 2.421875 -21.609375 L 2.421875 -25.109375 L 7.171875 -25.109375 L 7.171875 -21.609375 Z M 2.421875 0 L 2.421875 -18.3125 L 7.171875 -18.3125 L 7.171875 0 Z M 2.421875 0 "/></g></g></g><g fill="#000000" fill-opacity="1"><g transform="translate(313.519872, 190.937054)"><g><path d="M 14.28125 0 L 14.28125 -10.265625 C 14.28125 -13.484375 13.191406 -15.09375 11.015625 -15.09375 C 9.867188 -15.09375 8.941406 -14.597656 8.234375 -13.609375 C 7.523438 -12.628906 7.171875 -11.363281 7.171875 -9.8125 L 7.171875 0 L 2.421875 0 L 2.421875 -14.21875 C 2.421875 -15.195312 2.40625 -16 2.375 -16.625 C 2.34375 -17.25 2.3125 -17.8125 2.28125 -18.3125 L 6.8125 -18.3125 C 6.851562 -18.09375 6.898438 -17.519531 6.953125 -16.59375 C 7.015625 -15.664062 7.046875 -15.023438 7.046875 -14.671875 L 7.109375 -14.671875 C 7.753906 -16.066406 8.5625 -17.082031 9.53125 -17.71875 C 10.5 -18.351562 11.65625 -18.671875 13 -18.671875 C 14.9375 -18.671875 16.421875 -18.070312 17.453125 -16.875 C 18.492188 -15.675781 19.015625 -13.925781 19.015625 -11.625 L 19.015625 0 Z M 14.28125 0 "/></g></g></g><g fill="#000000" fill-opacity="1"><g transform="translate(334.679744, 190.937054)"><g><path d="M 10.078125 7.34375 C 7.847656 7.34375 6.050781 6.914062 4.6875 6.0625 C 3.332031 5.207031 2.5 3.992188 2.1875 2.421875 L 6.9375 1.859375 C 7.101562 2.597656 7.460938 3.175781 8.015625 3.59375 C 8.578125 4.007812 9.3125 4.21875 10.21875 4.21875 C 11.539062 4.21875 12.503906 3.8125 13.109375 3 C 13.722656 2.1875 14.03125 0.976562 14.03125 -0.625 L 14.03125 -1.59375 L 14.0625 -3.40625 L 14.03125 -3.40625 C 12.976562 -1.15625 11.015625 -0.03125 8.140625 -0.03125 C 6.003906 -0.03125 4.347656 -0.832031 3.171875 -2.4375 C 2.003906 -4.039062 1.421875 -6.332031 1.421875 -9.3125 C 1.421875 -12.300781 2.023438 -14.609375 3.234375 -16.234375 C 4.441406 -17.859375 6.195312 -18.671875 8.5 -18.671875 C 11.15625 -18.671875 13 -17.566406 14.03125 -15.359375 L 14.109375 -15.359375 C 14.109375 -15.753906 14.132812 -16.289062 14.1875 -16.96875 C 14.238281 -17.644531 14.289062 -18.09375 14.34375 -18.3125 L 18.84375 -18.3125 C 18.78125 -17.09375 18.75 -15.679688 18.75 -14.078125 L 18.75 -0.5625 C 18.75 2.039062 18.007812 4.007812 16.53125 5.34375 C 15.050781 6.675781 12.898438 7.34375 10.078125 7.34375 Z M 14.0625 -9.40625 C 14.0625 -11.289062 13.722656 -12.757812 13.046875 -13.8125 C 12.378906 -14.875 11.425781 -15.40625 10.1875 -15.40625 C 7.644531 -15.40625 6.375 -13.375 6.375 -9.3125 C 6.375 -5.320312 7.632812 -3.328125 10.15625 -3.328125 C 11.414062 -3.328125 12.378906 -3.851562 13.046875 -4.90625 C 13.722656 -5.96875 14.0625 -7.46875 14.0625 -9.40625 Z M 14.0625 -9.40625 "/></g></g></g></svg>